<?xml version="1.0" encoding="utf-8"?>
<!-- Generator: Adobe Illustrator 24.1.3, SVG Export Plug-In . SVG Version: 6.00 Build 0)  -->
<svg version="1.1" id="Layer_1" xmlns="http://www.w3.org/2000/svg" xmlns:xlink="http://www.w3.org/1999/xlink" x="0px" y="0px"
	 viewBox="0 0 487.59 24.39" style="enable-background:new 0 0 487.59 24.39;" xml:space="preserve">
<path id="logo_x5F_jiang-j" d="M0,18.33h2.67c0.27,2.46,1.41,3.24,3.21,3.24c1.44,0,2.79-0.81,2.79-3.54V1.02h2.76v17.13
	c0,3.63-2.46,5.76-5.67,5.76C2.49,23.91,0.24,21.69,0,18.33z M0,18.33h2.67c0.27,2.46,1.41,3.24,3.21,3.24
	c1.44,0,2.79-0.81,2.79-3.54V1.02h2.76v17.13c0,3.63-2.46,5.76-5.67,5.76C2.49,23.91,0.24,21.69,0,18.33z M0,18.33h2.67
	c0.27,2.46,1.41,3.24,3.21,3.24c1.44,0,2.79-0.81,2.79-3.54V1.02h2.76v17.13c0,3.63-2.46,5.76-5.67,5.76
	C2.49,23.91,0.24,21.69,0,18.33z M0,18.33h2.67c0.27,2.46,1.41,3.24,3.21,3.24c1.44,0,2.79-0.81,2.79-3.54V1.02h2.76v17.13
	c0,3.63-2.46,5.76-5.67,5.76C2.49,23.91,0.24,21.69,0,18.33z"/>
<path id="logo_x5F_jiang-i" d="M116.01,23.52V1.02h2.76v22.5H116.01z"/>
<path id="logo_x5F_jiang-a" d="M220.83,23.52L231.18,0l10.41,23.52h-2.97l-2.97-6.81h-9.09l-2.97,6.81H220.83z M234.6,14.28
	l-3.48-7.98l-3.48,7.98H234.6z"/>
<path id="logo_x5F_jiang-n" d="M362.49,24.39L346.38,5.46v18.06h-2.76V1.02h2.25l13.86,16.41V1.02h2.76V24.39z"/>
<path id="logo_x5F_jiang-g" d="M485.1,19.5c-1.35,2.94-4.41,4.41-7.92,4.41c-6.54,0-11.4-5.1-11.4-11.76
	c0-6.66,5.31-11.64,11.7-11.64c4.56,0,8.58,2.79,10.02,6.99h-3.12c-1.11-2.82-3.87-4.53-6.9-4.53c-4.77,0-8.73,3.69-8.73,9.18
	c0,5.46,3.45,9.3,8.79,9.3c4.35,0,7.35-2.61,7.35-6.9v-0.6h-6.03v-2.43h8.73v12h-1.8L485.1,19.5z M485.1,19.5
	c-1.35,2.94-4.41,4.41-7.92,4.41c-6.54,0-11.4-5.1-11.4-11.76c0-6.66,5.31-11.64,11.7-11.64c4.56,0,8.58,2.79,10.02,6.99h-3.12
	c-1.11-2.82-3.87-4.53-6.9-4.53c-4.77,0-8.73,3.69-8.73,9.18c0,5.46,3.45,9.3,8.79,9.3c4.35,0,7.35-2.61,7.35-6.9v-0.6h-6.03v-2.43
	h8.73v12h-1.8L485.1,19.5z"/>
</svg>
