<?xml version="1.0" encoding="utf-8"?>
<!-- Generator: Adobe Illustrator 24.1.3, SVG Export Plug-In . SVG Version: 6.00 Build 0)  -->
<svg version="1.1" id="Layer_1" xmlns="http://www.w3.org/2000/svg" xmlns:xlink="http://www.w3.org/1999/xlink" x="0px" y="0px"
	 viewBox="0 0 487.65 24.39" style="enable-background:new 0 0 487.65 24.39;" xml:space="preserve">
<path id="logo_x5F_yujin-y" d="M10.35,13.84v9.6h-2.7v-9.6L0,0.94h3.24l6,10.11l5.91-10.11h2.94L10.35,13.84z M10.35,13.84v9.6h-2.7
	v-9.6L0,0.94h3.24l6,10.11l5.91-10.11h2.94L10.35,13.84z M10.35,13.84v9.6h-2.7v-9.6L0,0.94h3.24l6,10.11l5.91-10.11h2.94
	L10.35,13.84z M10.35,13.84v9.6h-2.7v-9.6L0,0.94h3.24l6,10.11l5.91-10.11h2.94L10.35,13.84z"/>
<path id="logo_x5F_yujin-u" d="M123.42,15.73V0.94h2.76v14.55c0,5.22-3.51,8.34-8.79,8.34c-5.25,0-8.79-3.12-8.79-8.34V0.94h2.76
	v14.79c0,3.69,2.61,5.61,6.03,5.61S123.42,19.42,123.42,15.73z"/>
<path id="logo_x5F_yujin-j" d="M225.46,18.25h2.67c0.27,2.46,1.41,3.24,3.21,3.24c1.44,0,2.79-0.81,2.79-3.54V0.94h2.76v17.13
	c0,3.63-2.46,5.76-5.67,5.76C227.95,23.83,225.7,21.61,225.46,18.25z"/>
<path id="logo_x5F_yujin-i" d="M351.67,23.44V0.94h2.76v22.5H351.67z"/>
<path id="logo_x5F_yujin-n" d="M487.65,24.31L471.54,5.38v18.06h-2.76V0.94h2.25l13.86,16.41V0.94h2.76V24.31z"/>
</svg>
